<svg width="61" height="60" viewBox="0 0 61 60" fill="none" xmlns="http://www.w3.org/2000/svg">
<path d="M30.5 1.42857C14.72 1.42857 1.92859 14.22 1.92859 30C1.92859 45.78 14.72 58.5714 30.5 58.5714C46.28 58.5714 59.0714 45.78 59.0714 30C59.0714 14.22 46.28 1.42857 30.5 1.42857ZM30.5 5.56857C36.7243 5.56857 42.4057 7.89715 46.72 11.7286C43.55 15.91 38.7343 18.6943 33.9086 20.5786C31.1768 15.6034 28.1152 10.8165 24.7443 6.25C26.6296 5.79557 28.5622 5.56683 30.5014 5.56857H30.5ZM20.1057 7.88286C23.2914 12.6486 26.3772 17.0671 29.1957 22.0686C22.0672 23.9157 14.0114 25.0243 6.57002 25.0429C8.13859 17.4314 13.2514 11.1114 20.1057 7.88429V7.88286ZM49.43 14.5543C52.9604 18.8685 54.9025 24.2641 54.9314 29.8386C49.28 28.7243 43.66 28.4329 37.9372 29.01C37.2943 27.4057 36.5143 25.8814 35.7672 24.2386C40.7 22.2486 45.9743 18.8429 49.43 14.5529V14.5543ZM31.18 25.8486C31.7914 27.1486 32.5 28.5286 33.1657 29.9386C25.2086 33.4471 16.7443 38.1357 12.3514 46.3557C8.13431 41.689 5.88688 35.5712 6.08002 29.2843C14.6014 29.2443 22.9657 28.1786 31.18 25.8486V25.8486ZM44.0914 32.51C47.6469 32.5108 51.1876 32.9669 54.6272 33.8671C54.0968 37.1761 52.8914 40.3405 51.0857 43.1636C49.2801 45.9867 46.9129 48.4081 44.1314 50.2771C42.82 44.3129 41.57 38.6057 39.36 32.8514C40.9263 32.6232 42.5071 32.5086 44.09 32.5086L44.0914 32.51ZM54.7543 32.9529C54.7372 33.0929 54.7214 33.23 54.7014 33.3671C54.7214 33.2286 54.7386 33.0914 54.7543 32.9529ZM34.84 33.9671C37.0914 39.7857 38.8586 46.2286 40.0443 52.4986C37.026 53.7792 33.7802 54.4372 30.5014 54.4329C25.0698 54.4406 19.7918 52.6302 15.5086 49.29C19.9329 42.1129 26.7857 36.6814 34.8386 33.9686L34.84 33.9671Z" fill="white" fill-opacity="0.4"/>
</svg>
