<svg width="60" height="60" viewBox="0 0 60 60" fill="none" xmlns="http://www.w3.org/2000/svg">
<path d="M52.6598 3H7.34025C4.944 3 3 4.944 3 7.34025V52.6598C3 55.056 4.944 57 7.34025 57H52.6598C55.056 57 57 55.056 57 52.6598V7.34025C57 4.944 55.056 3 52.6598 3V3ZM52.6598 52.68C22.4333 52.6733 7.32 52.6665 7.32 52.6598C7.32675 22.4333 7.3335 7.32 7.34025 7.32C37.5668 7.32675 52.68 7.3335 52.68 7.34025C52.6733 37.5668 52.6665 52.68 52.6598 52.68ZM11.0055 23.2433H19.0177V49.0148H11.0055V23.2433ZM15.015 19.7198C17.5733 19.7198 19.659 17.6408 19.659 15.0758C19.659 14.4659 19.5389 13.862 19.3055 13.2986C19.0721 12.7351 18.73 12.2232 18.2988 11.7919C17.8676 11.3607 17.3556 11.0186 16.7922 10.7853C16.2287 10.5519 15.6249 10.4318 15.015 10.4318C14.4051 10.4318 13.8013 10.5519 13.2378 10.7853C12.6744 11.0186 12.1624 11.3607 11.7312 11.7919C11.3 12.2232 10.9579 12.7351 10.7245 13.2986C10.4911 13.862 10.371 14.4659 10.371 15.0758C10.3643 17.6408 12.4433 19.7198 15.015 19.7198ZM32.0453 36.264C32.0453 32.9025 32.6865 29.649 36.8513 29.649C40.9553 29.649 41.016 33.4898 41.016 36.48V49.0148H49.0215V34.8803C49.0215 27.9412 47.523 22.602 39.4163 22.602C35.5215 22.602 32.9093 24.7418 31.836 26.7668H31.728V23.2433H24.0398V49.0148H32.0453V36.264Z" fill="white" fill-opacity="0.4"/>
</svg>
